<svg xmlns="http://www.w3.org/2000/svg" viewBox="27 200 600 252">
  <defs/>
  <g fill="#fff">
    <path d="M421 378.6c-3-.3-6-.5-8.8-.6-2.9-.2-5.8-.3-8.7-.6-2.9.3-5.9.4-8.7.6-2.9.1-5.9.3-8.8.6h-.4c-3 0-6.2-.1-6.2-3 0-2.8 1.7-3.7 4.5-4.9 3.2-1.4 3.6-3.7 3.6-11.9v-47.6c0-1.6-.1-2.9-.3-3.4-.5.4-1.4 2.3-2.4 4.2l-.6 1.3-29.1 60.8c-1.5 3-3.1 4.5-4.8 4.5-2.1 0-3-1.8-3.7-3.3l-.1-.2-28.6-63c-1.5-3.4-2.1-3.8-2.3-3.8-.2 0-.5 0-.5 2.8v39.2c0 8.2 1.4 16.4 11.9 20.4 2.3.9 4.4 2.1 4.4 4.9 0 3-3.2 3-4.6 3-2.6 0-5.2-.3-7.8-.6-2.5-.3-5.1-.6-7.6-.6s-5.1.3-7.6.6-5.2.6-7.8.6c-1.4 0-3.7 0-3.7-3 0-2.6 1.8-3.5 3.8-4.6l.5-.3c7-3.8 9.2-7.6 9.2-16.1v-56c0-5.8-1.8-13.4-6.8-15.9-.8-.4-1.6-.8-2.3-1.1-3.3-1.5-4.9-2.3-4.9-4.7 0-2.1.7-3 2.6-3 2.2 0 4.5.2 6.6.3 2.2.1 4.4.3 6.5.3s4.4-.2 6.5-.3c2.2-.1 4.4-.3 6.6-.3 2.9 0 4.3.4 5.6 2.9l28.6 60.4c.8 1.7 1.5 3.1 2 4.2.9 1.9 1.6 3.4 1.9 3.9.4-.4 1.2-2 1.9-3.3.3-.7.7-1.4 1.1-2.1l32.1-62.3c1.6-3.1 2.3-3.8 3.9-3.8 2.2 0 4.5.2 6.6.3 2.2.1 4.4.3 6.5.3s4.4-.2 6.5-.3c2.2-.1 4.4-.3 6.6-.3.5 0 1 .2 1.3.5.5.5.6 1.3.5 2.5 0 2.6-2.5 3.5-6.7 5l-.8.3c-4.9 1.6-7.2 2.8-7.2 11.4v52.8c0 12.2.6 19.9 11.7 24.2 3 1.2 4.8 2 4.8 4.9 0 3.2-3.5 3.2-6.5 3.2M478.4 379.6c-6.7 0-12.8-1.5-18.8-3-2.6-.7-5.4-1.3-8.1-1.9-.2 0-.4-.1-.5-.1-1.5-.3-4-.7-4.8-3.2L441 351c-.1-.4-.2-.9-.4-1.4-.3-1.2-.7-2.5-.7-3.6 0-.8.3-3.4 4.2-3.4 3.1 0 4.3 3.1 5.2 5.4.2.5.4 1 .6 1.4 4.8 10.2 14.9 21.2 28.8 21.2 10.3 0 17.5-6.5 17.5-15.8 0-9.6-9.9-13.1-21.3-17.1-14.8-5.3-33.3-11.8-33.3-35.2 0-16.5 13.9-29.9 30.9-29.9 7.9 0 14 2.3 18.4 3.9 2.7 1 4.8 1.8 6.5 1.8.6 0 1.9-.6 2.9-1 1.3-.6 2.4-1 3.3-1 3.1 0 3.5 2.1 3.5 3.9-.2 5.9.9 14.4 1.6 19.4.3 2.3.5 3.4.5 3.9 0 2.7-1.6 4.4-4.1 4.4-3.3 0-4.2-2.7-5.3-6.2l-.2-.6c-3.3-10.4-15.4-19.6-26-19.6-7.8 0-15.6 4.2-15.6 12.3 0 10.1 10 13.5 21.6 17.5 15.5 5.3 33 11.2 33 34.7.1 16.1-13 33.6-34.2 33.6M578.9 379.6c-25 0-50.9-18.7-50.9-50.1 0-18.9 5.8-34.1 16.9-44 9.2-8.3 21.9-12.8 35.8-12.8 10.8 0 19.8 3.5 25.8 5.9 2.6 1 4.9 1.9 6 1.9 1 0 1.3-.5 1.9-1.6.7-1.3 1.6-3 4.4-3 1.6 0 2.7 1 3 2.6l2.2 20c.1 1.2.3 2.4.5 3.6.3 1.6.5 3.1.5 4.2 0 2.3-1.1 4.7-3.3 4.7-2.2 0-3.7-2.9-4.6-4.6-.1-.2-.2-.4-.3-.5-8.7-15.6-20.3-24.2-32.8-24.2-20.5 0-30.5 13.5-30.5 41.3 0 23.5 14.5 42.7 32.3 42.7 10.6 0 21.5-5 30.1-13.7.3-.3.6-.7 1-1 1.6-1.8 3.7-4 6-4 .8 0 2.7.3 2.7 3.2.2 4.8-15.6 29.4-46.7 29.4M124.3 278.4c1-.6 1.4-1.9.8-2.9-.6-1-1.9-1.4-2.9-.8-1 .6-1.4 1.9-.8 2.9.6 1 1.9 1.4 2.9.8m57.1-3.8c-1-.6-2.3-.2-2.9.8-.6 1-.2 2.3.8 2.9 1 .6 2.3.2 2.9-.8.6-1 .3-2.3-.8-2.9m-59.3 102.9c1 .6 2.3.2 2.9-.8.6-1 .2-2.3-.8-2.9-1-.6-2.3-.2-2.9.8-.6 1-.2 2.3.8 2.9m-29.7-51.7c0 1.2 1 2.1 2.1 2.1 1.2 0 2.1-1 2.1-2.1 0-1.2-1-2.2-2.1-2.2-1.2.1-2.1 1-2.1 2.2m86.9 48c-1 .6-1.4 1.9-.8 2.9.6 1 1.9 1.4 2.9.8 1-.6 1.4-1.9.8-2.9-.5-1-1.8-1.4-2.9-.8m35.2-30.8l63.1-16.9-63.1-16.9 25.7-34.4-42.6 5.2 5.2-42.8-34.2 25.8-16.8-63.3L135 263l-34.3-25.8 5.2 42.7-42.6-5.2 25.8 34.4L26 326l62.9 17-25.8 34.4 42.6-5.2-5.2 42.8 34.3-25.8 16.8 63.3 16.8-63.3 34.3 25.9-5.1-42.8 42.6 5.2-25.7-34.5zm39.4-16.9h-37.2c0-3.4-.3-6.8-.8-10.1l38 10.1zm-204.4 0h37.2c0 3.4.3 6.8.8 10.1l-38-10.1zm146.2-76.3l-11.5 19.8c-3.1-1.8-5.8-3.1-9.1-4.4l20.6-15.4zm-12.4 28.4c-.9 1.6-3 2.2-4.7 1.3-1.6-.9-2.2-3-1.2-4.7.9-1.6 3-2.2 4.7-1.3 1.6 1 2.2 3.1 1.2 4.7m-31.6-54.6v37.3c-5.6 0-10.1.8-10.1.8l10.1-38.1zm-30.2 49.9c1.6-.9 3.7-.4 4.7 1.3.9 1.6.4 3.7-1.3 4.7-1.6 1-3.7.4-4.7-1.2-.9-1.7-.3-3.8 1.3-4.8m-2.3-3.9c-3.1 1.8-5.6 3.5-8.3 5.7l-3.1-25.5 11.4 19.8zm-21.3 56.2c0 1.9-1.5 3.4-3.4 3.4s-3.4-1.5-3.4-3.4 1.5-3.4 3.4-3.4 3.4 1.5 3.4 3.4M75.7 282l19.7 11.5c-1.8 3.1-3.1 5.9-4.3 9.1L75.7 282zm0 88.2l19.7-11.5c1.8 3.1 3.5 5.6 5.7 8.3l-25.4 3.2zm32.1 32.3l11.5-19.9c3 1.8 5.8 3.1 9.1 4.4l-20.6 15.5zm12.4-28.6c.9-1.7 3-2.2 4.7-1.3 1.6.9 2.2 3.1 1.2 4.7-.9 1.6-3 2.2-4.7 1.3-1.6-.9-2.1-3-1.2-4.7m31.5 54.7v-37.3c3.4 0 6.8-.3 10.1-.8l-10.1 38.1zm30.4-49.9c-1.6.9-3.7.4-4.7-1.3-1-1.6-.4-3.8 1.2-4.7 1.6-.9 3.7-.4 4.7 1.3 1 1.6.4 3.7-1.2 4.7m2.1 3.9c3.1-1.8 5.6-3.5 8.3-5.7l3.1 25.6-11.4-19.9zm-32.5-6.9c-27.3 0-49.4-22.2-49.4-49.6s22.1-49.6 49.4-49.6 49.4 22.2 49.4 49.6-22.1 49.6-49.4 49.6m76.1-93.7L208 293.5c-1.8-3.1-3.5-5.6-5.7-8.3l25.5-3.2zm-22.3 44c0-1.9 1.5-3.4 3.4-3.4s3.4 1.5 3.4 3.4-1.5 3.4-3.4 3.4c-1.9.1-3.4-1.5-3.4-3.4m6.9 23.6l15.4 20.6-19.8-11.5c1.8-3.1 3.1-5.9 4.4-9.1M211 326c0-1.2-1-2.2-2.2-2.2-1.2 0-2.1 1-2.1 2.2 0 1.2 1 2.2 2.1 2.2 1.3 0 2.2-1 2.2-2.2"/>
    <path d="M132.8 353.7c0 1 .6 1.8 1.5 2.2 1.5.6 3.1.6 4.6 0 .9-.4 1.5-1.2 1.5-2.2 0-.9-.6-1.7-1.4-2.1-.7-.3-1.4-.6-2.1-.7-.9-.2-1.8-.4-2.8-.6-.5-.1-1-.2-1.5-.2-2.7-.4-5.3-1.5-7.4-3.3-.5-.6-.9-1.3-1.2-2-1.9-4.2 0-9.2 4.2-11.1 5.1-2.3 11-2.4 16.2-.2 3.1 1.1 5.2 4 5.3 7.3h-8.9c-.3-1.3-1.3-2.3-2.6-2.5-1.2-.3-2.4-.2-3.4.3-1.2.5-1.8 1.9-1.4 3.1.7 1.2 1.8 1.9 3.1 2.1 2.5.3 5 .9 7.4 1.7 1 .2 2 .6 2.8 1.2.8.6 1.5 1.4 2 2.3 2.4 3.9 1.1 9.1-2.8 11.4-4.8 2.4-10.3 2.9-15.4 1.3-3.9-.7-6.7-4.1-6.7-8.1h9zm46.8-9.6c-.1-4-2.2-7.6-5.5-9.7-4.9-3.5-11.5-3.1-15.9.8-2.7 2.4-4.3 5.7-4.5 9.3-.5 3.6-.1 7.2 1.2 10.6 1.5 3.2 4.1 5.6 7.4 6.7 3.2 1.2 6.7 1 9.8-.6 4.3-2 7.1-6.2 7.5-10.9h-8.2c-.5 1.7-1.5 3.1-2.6 3.8-2.6 1.7-5.7 0-6.9-3.8-1.2-3.9 0-8.4 2.6-10.1 2.6-1.7 5.7 0 6.9 3.9h8.2zm-12-20.4v-19c-.2-2.6-2.5-4.5-5.1-4.3-2.3.2-4.2 2.2-4.3 4.5v21.4c3.1-1.1 6.2-2 9.4-2.6m-22.4 2.5V305c0-2.6-2.2-4.7-4.8-4.7-2.3 0-4.2 1.7-4.6 3.9v19.6c3.2.5 6.4 1.2 9.4 2.4m46.4 3.1c-3.7 2.1-8.2 2.3-12.2.6-6-2.4-12.6-2.4-18.6 0-2.9 1.2-6 1.7-9.1 1.7-3.1 0-6.2-.5-9.1-1.7-6-2.4-12.6-2.4-18.6 0-3.9 1.7-8.4 1.5-12.2-.6l2.1-3.6c2.6 1.4 5.7 1.6 8.4.4v-35.5h13.3v3.4c.4-.5.9-.9 1.4-1.3 5.9-4.8 14.5-4 19.3 1.9 2.5-3 6.1-4.8 10-5 7.7-.4 14.3 5.6 14.7 13.3V326c2.7 1.2 5.8 1 8.4-.4l2.2 3.7z"/>
  </g>
</svg>
