<svg xmlns="http://www.w3.org/2000/svg" viewBox="0 0 160 58">
  <defs/>
  <g fill="#fff">
    <path d="M104.701 40.272c-.251.077-.43.301-.43.301-4.413 8.96-13.633 15.125-24.295 15.125-14.951 0-27.072-12.12-27.072-27.072 0-14.951 12.12-27.072 27.072-27.072a26.954 26.954 0 0117.682 6.582s.263.212.536.212c.228 0 .349-.09.349-.09C93.44 3.448 86.568.496 79.002.496c-15.742 0-28.503 12.761-28.503 28.503 0 15.741 12.761 28.502 28.503 28.502 11.747 0 21.831-7.108 26.194-17.256a1.086 1.086 0 00-.495.027z"/>
    <path d="M94.386 10.545c-2.844.004-7.366 1.488-9.78 2.797-1.965-2.352-5.592-3.95-9.13-3.951-4.857.009-9.254 3.135-9.254 8.241 0 4.758 4.021 7.173 7.984 7.377-.063.284-.053.562-.053.831 0 2.415 2.05 4.739 5.174 4.739 3.348 0 6.782-2.928 9.318-5.35-2.125 2.568-4.219 5.89-7.011 10.049-3.635 5.447-7.106 8.596-13.166 8.6-5.454-.001-8.978-2.9-8.987-6.08.001-2.555 1.396-4.643 3.392-6.105 1.994-1.461 4.583-2.279 6.911-2.278 3.293.006 5.958 1.66 5.963 4.419-.001 1.886-.971 3.328-2.377 4.316-1.407.986-3.251 1.501-4.947 1.5-1.488 0-2.571-.267-3.327-.534-.772-.266-1.434-.551-1.434-.551s-.176.012-.269.19c-.094.179-.054.338-.054.338s1.583 1.329 5.286 1.329c3.735 0 7.884-2.538 7.896-6.547-.006-3.82-4.088-6.347-8.044-6.353-4.752.004-10.712 3.678-10.729 9.085.006 4.477 4.865 8.043 10.719 8.05h.002c7.578.001 14.84-4.207 18.345-12.233 2.032-4.632 3.309-7.318 4.075-8.574.758-1.266 1.005-1.571 1.005-1.571s-.019-.219-.188-.371c-.205-.184-.463-.081-.463-.081s-.582.461-1.366 1.209c-2.28 2.247-6.376 6.474-10.394 6.46-1.199-.023-2.21-.406-2.239-2.879-.002-.593.032-1.087.234-1.637 4.5-.48 9.628-2.442 13.419-4.652 3.806-2.23 6.525-4.876 6.544-7.236.008-.073.013-.161.013-.248 0-1.37-1.244-2.297-3.068-2.299zm-7.291 7.9s.174.097.408-.026c.234-.124.251-.291.251-.291s-.408-1.074-2.106-3.613c2.272-1.638 5.973-3.197 8.774-3.193 1.684.031 2.223.465 2.247 1.692.018 2.027-2.49 4.594-6.107 6.605-3.547 1.984-8.358 3.477-12.563 3.564 1.239-3.388 4.08-6.093 7.015-8.178a20.3 20.3 0 011.483 2.358l.598 1.082zm-12.5 4.581c-1.893-.122-3.156-.463-4.718-1.482-1.593-1.041-2.725-2.67-2.725-4.605.008-3.284 3.175-6.763 8.057-6.768 3.606 0 6.681 1.334 8.713 3.53-3.603 2.201-7.497 4.765-9.327 9.325z"/>
    <path d="M94.685 24.096c0-2.425-.025-2.728-1.213-2.855l-.656-.076c-.176-.177-.176-.581.025-.708 1.591-.151 3.739-.228 5.811-.228 1.97 0 3.688.253 4.8.859 1.289.683 2.223 1.869 2.223 3.688 0 2.324-1.794 3.487-3.031 3.992-.152.075-.101.277 0 .429 2.021 3.41 3.284 5.558 4.471 6.543.708.606 1.441.758 1.744.783.126.101.126.379.05.505-.303.076-.783.152-1.668.152-2.424 0-3.738-.986-5.279-3.334-.683-1.062-1.39-2.451-1.996-3.436-.455-.758-.732-.859-1.566-.859-.758 0-.783.026-.783.557v3.234c0 2.677.228 2.753 1.415 2.905l.556.075c.176.177.152.632-.05.733a73.887 73.887 0 00-3.36-.076c-1.112 0-2.249.026-3.411.076-.202-.101-.278-.556-.051-.733l.557-.075c1.187-.152 1.414-.228 1.414-2.905v-9.246zm2.931 3.638c0 .808 0 .858 1.213.858 2.476 0 3.613-1.212 3.613-3.612 0-1.995-1.288-3.739-3.486-3.739-1.314 0-1.339.076-1.339 1.238v5.255zm28.744.96c0 4.976-3.789 8.69-8.893 8.69-5.709 0-8.994-4.017-8.994-8.514 0-5.153 3.739-8.968 9.044-8.968 5.836 0 8.843 4.194 8.843 8.792zm-14.45-.556c0 3.486 1.49 8.236 5.81 8.236 2.88 0 5.204-2.147 5.204-7.225 0-3.815-1.718-8.235-5.734-8.235-2.527-.001-5.28 1.843-5.28 7.224zm18.009-4.194c0-2.677-.227-2.728-1.414-2.93l-.43-.076c-.176-.176-.151-.606.051-.708 1.01.05 2.147.076 3.259.076 1.137 0 2.273-.026 3.386-.076.202.101.227.531.05.708l-.555.076c-1.188.152-1.415.253-1.415 2.93v5.784c0 3.486 1.061 6.417 4.573 6.417 3.31 0 4.674-2.501 4.674-6.341v-3.157c0-1.895-.025-4.244-.48-4.977-.228-.379-.632-.556-1.264-.657l-.505-.076c-.228-.176-.202-.632.05-.708a49.023 49.023 0 005.481 0c.202.127.253.531.051.708l-.557.126c-.48.101-.934.202-1.111.606-.354.758-.354 2.981-.354 4.977v3.006c0 2.298-.353 4.421-1.666 5.836-1.314 1.414-3.209 1.895-4.952 1.895-2.376 0-4.042-.505-5.204-1.617-1.137-1.086-1.668-2.855-1.668-5.406v-6.416zM17.732 30.79c-.657 0-.632 0-.859.683l-1.036 3.031c-.505 1.49-.404 1.541.531 1.692l.733.126c.177.176.152.632-.05.733-.808-.051-1.642-.051-2.678-.076-.833 0-1.617.025-2.501.076-.177-.126-.202-.505-.025-.733l.758-.126c.733-.126 1.011-.328 1.389-1.161.303-.657.707-1.718 1.238-3.083l3.461-8.993c.303-.808.556-1.415.48-1.844.884-.176 1.718-1.213 1.768-1.213.202 0 .328.076.429.202.404 1.137.733 2.324 1.137 3.46l3.638 10.585c.581 1.693.707 1.844 1.996 2.097l.379.076c.202.176.202.607.025.733a62.403 62.403 0 00-3.284-.076c-1.086 0-2.198.05-3.082.076-.202-.126-.227-.581-.076-.733l.556-.076c.909-.126 1.036-.277.657-1.338l-1.187-3.436c-.227-.683-.328-.683-1.036-.683h-3.361zm3.032-1.137c.708 0 .808-.05.606-.656l-1.061-3.031c-.455-1.339-.581-1.819-.707-1.996h-.05c-.101.177-.329.808-.758 1.996l-1.061 2.955c-.253.732-.202.732.404.732h2.627zm23.749-5.103c-.177.202-.632.227-.809.05-.429-1.591-1.566-3.688-4.901-3.688-3.208 0-6.442 2.273-6.442 7.453 0 5.38 3.36 8.007 6.619 8.007 3.183 0 4.572-2.122 5.28-3.764.227-.228.632-.126.758.101-.176 1.693-.859 3.36-1.213 3.841-.303.05-.606.151-.884.227-.556.176-2.299.606-3.941.606-2.501 0-4.648-.505-6.467-1.692-2.046-1.339-3.587-3.638-3.587-6.947 0-2.956 1.314-5.255 3.183-6.695 1.869-1.414 4.421-2.147 6.972-2.147 1.44 0 3.184.253 4.371.555.303.076.48.102.707.152.051.582.102 2.072.354 3.941zm-33.495-3.309c-1.137-.657-2.88-1.011-5.28-1.011-2.299 0-3.815.026-5.583.227-.202.102-.202.531-.025.708l.884.101c1.061.126 1.086.53 1.086 2.829v9.245c0 2.678-.227 2.779-1.415 2.931l-.404.05c-.177.176-.151.632.051.733a66.354 66.354 0 013.259-.076c1.112 0 2.248.025 3.739.076.177-.102.202-.557.051-.733l-.935-.101c-1.187-.126-1.415-.203-1.415-2.88v-2.659c0-.531-.008-.557.783-.557.792 0 2.631.08 4.219-.625 1.655-.735 3.133-2.07 3.133-4.471-.001-1.664-.834-3.004-2.148-3.787zm-4.775 7.925c-1.213 0-1.213-.051-1.213-.858v-6.005c0-.985.025-1.061 1.288-1.061 2.299 0 3.612 1.794 3.612 3.84.001 1.707-.534 4.084-3.687 4.084zm151.61-7.925c-1.136-.657-2.88-1.011-5.28-1.011-2.299 0-3.814.026-5.583.227-.202.102-.202.531-.025.708l.884.101c1.061.126 1.086.53 1.086 2.829v9.245c0 2.678-.227 2.779-1.414 2.931l-.404.05c-.177.176-.151.632.05.733a66.366 66.366 0 013.26-.076c1.111 0 2.248.025 3.739.076.176-.102.202-.557.05-.733l-.935-.101c-1.187-.126-1.414-.203-1.414-2.88v-2.659c0-.531-.008-.557.783-.557.792 0 2.631.08 4.219-.625 1.656-.735 3.133-2.07 3.133-4.471-.002-1.664-.836-3.004-2.149-3.787zm-4.775 7.925c-1.213 0-1.213-.051-1.213-.858v-6.005c0-.985.025-1.061 1.288-1.061 2.299 0 3.613 1.794 3.613 3.84.001 1.707-.535 4.084-3.688 4.084z"/>
  </g>
</svg>
